<svg width="22" height="22" viewBox="0 0 22 22" fill="none" xmlns="http://www.w3.org/2000/svg">
<g id="icon_help">
<path id="Vector" d="M11 20.1656C5.93725 20.1656 1.83333 16.0617 1.83333 10.9989C1.83333 5.93619 5.93725 1.83228 11 1.83228C16.0627 1.83228 20.1667 5.93619 20.1667 10.9989C20.1667 16.0617 16.0627 20.1656 11 20.1656ZM10.0833 13.7489V15.5823H11.9167V13.7489H10.0833ZM11.9167 12.241C12.6534 12.019 13.2858 11.5397 13.6988 10.8905C14.1118 10.2413 14.2779 9.46541 14.1668 8.70404C14.0558 7.94266 13.6749 7.24651 13.0937 6.74236C12.5124 6.23821 11.7694 5.9596 11 5.95728C10.2583 5.95722 9.53944 6.21408 8.96572 6.68419C8.39201 7.15429 7.99884 7.8086 7.85308 8.53586L9.65158 8.89611C9.70262 8.64076 9.82512 8.40514 10.0048 8.21669C10.1845 8.02824 10.4141 7.89469 10.6667 7.83159C10.9194 7.76849 11.1847 7.77843 11.4319 7.86025C11.6792 7.94207 11.8981 8.09241 12.0632 8.29378C12.2283 8.49514 12.3328 8.73926 12.3646 8.99771C12.3964 9.25617 12.3542 9.51834 12.2428 9.75373C12.1314 9.98911 11.9555 10.188 11.7355 10.3273C11.5154 10.4666 11.2604 10.5406 11 10.5406C10.7569 10.5406 10.5237 10.6372 10.3518 10.8091C10.1799 10.981 10.0833 11.2142 10.0833 11.4573V12.8323H11.9167V12.241Z" fill="#FF0000"/>
</g>
</svg>
