<svg width="18" height="22" viewBox="0 0 18 22" fill="none" xmlns="http://www.w3.org/2000/svg">
<g id="icon_doc.svg" clip-path="url(#clip0_2934_1770)">
<path id="Vector" d="M13.5 5V0.973L17.595 5.75H14.25C14.0511 5.75 13.8603 5.67098 13.7197 5.53033C13.579 5.38968 13.5 5.19891 13.5 5ZM14.25 7.25C13.6533 7.25 13.081 7.01295 12.659 6.59099C12.2371 6.16903 12 5.59674 12 5V0.5H2.25C1.65326 0.5 1.08097 0.737053 0.65901 1.15901C0.237053 1.58097 0 2.15326 0 2.75L0 19.25C0 19.8467 0.237053 20.419 0.65901 20.841C1.08097 21.2629 1.65326 21.5 2.25 21.5H15.75C16.3467 21.5 16.919 21.2629 17.341 20.841C17.7629 20.419 18 19.8467 18 19.25V7.25H14.25Z" fill="white"/>
</g>
<defs>
<clipPath id="clip0_2934_1770">
<rect width="18" height="22" fill="white"/>
</clipPath>
</defs>
</svg>
