<svg width="20" height="20" viewBox="0 0 20 20" fill="none" xmlns="http://www.w3.org/2000/svg">
<path d="M13.0893 11.9107C12.7638 11.5853 12.2362 11.5853 11.9107 11.9107C11.5853 12.2362 11.5853 12.7638 11.9107 13.0893L13.0893 11.9107ZM16.9107 18.0893C17.2362 18.4147 17.7638 18.4147 18.0893 18.0893C18.4147 17.7638 18.4147 17.2362 18.0893 16.9107L16.9107 18.0893ZM8.33333 13.3333C5.57191 13.3333 3.33333 11.0948 3.33333 8.33333H1.66667C1.66667 12.0152 4.65144 15 8.33333 15V13.3333ZM3.33333 8.33333C3.33333 5.57191 5.57191 3.33333 8.33333 3.33333V1.66667C4.65144 1.66667 1.66667 4.65144 1.66667 8.33333H3.33333ZM8.33333 3.33333C11.0948 3.33333 13.3333 5.57191 13.3333 8.33333H15C15 4.65144 12.0152 1.66667 8.33333 1.66667V3.33333ZM13.3333 8.33333C13.3333 11.0948 11.0948 13.3333 8.33333 13.3333V15C12.0152 15 15 12.0152 15 8.33333H13.3333ZM11.9107 13.0893L16.9107 18.0893L18.0893 16.9107L13.0893 11.9107L11.9107 13.0893Z" fill="#999999"/>
</svg>
