<svg width="201" height="49" viewBox="0 0 201 49" fill="none" xmlns="http://www.w3.org/2000/svg">
<g clip-path="url(#clip0_2902_53939)">
<path d="M5.57869 48.9934C2.49539 48.9934 0 46.5113 0 43.448V5.54978C0 2.48291 2.49539 0.000778198 5.57869 0.000778198H43.6189C46.6984 0.000778198 49.1977 2.48291 49.1977 5.54987V48.9967L5.57869 48.9934Z" fill="#FEFEFE"/>
<path d="M6.69322 3.53084C4.95378 3.53084 3.54333 4.93576 3.54333 6.66778V23.3957L23.4873 3.53478H6.69322V3.53084Z" fill="#FF0000"/>
<path d="M45.6544 6.66412C45.6544 4.93201 44.2439 3.52718 42.5047 3.52718H28.8604L45.6545 20.2516L45.6544 6.66412Z" fill="#FF0000"/>
<path d="M3.54333 42.3303C3.54333 44.0624 4.95378 45.467 6.69322 45.467H20.0571L3.54333 29.0257V42.3303Z" fill="#FF0000"/>
<path d="M40.4962 29.7061L25.8987 15.1696L15.3672 25.6572L29.9642 40.1938L24.6728 45.467H45.6545V24.5725L40.4962 29.7061Z" fill="#00A400"/>
<path d="M15.3673 25.6572L25.8987 15.1696L40.4962 29.7061L45.6545 24.5725V20.2555L28.8604 3.53084H23.4873L3.54333 23.392V29.0257L20.0532 45.467H24.6728L29.9642 40.1938L15.3673 25.6572Z" fill="#FEFEFE"/>
<path d="M56.9176 28.6827H63.1271V14.8906H73.0881V28.6827H79.2974V9.18008H56.9176V28.6827ZM177.105 19.0143C177.105 25.5624 182.449 28.9595 188.633 28.9595C190.955 28.9595 193.137 28.4866 194.955 27.315L195.125 27.4258V28.6802L201 28.6803V9.18008H195.125V10.5177L194.955 10.6008C193.027 9.43155 190.901 8.90086 188.522 8.90086C182.423 8.90086 177.106 12.3559 177.106 18.8463L177.105 19.0143ZM189.165 23.3041C185.865 23.3041 183.261 22.3287 183.261 18.959C183.261 15.5038 186.003 14.5561 189.165 14.5561C192.354 14.5561 195.125 15.5038 195.125 18.959C195.125 22.3309 192.492 23.3041 189.165 23.3041ZM151.814 31.8311H157.607V28.6827H170.027V31.8311H175.821V23.7241H173.748V9.18008L156.124 9.23547L156.013 11.408C155.735 16.9525 155.034 21.6875 153.805 23.7218H151.817V31.8311H151.814ZM167.875 23.7241H159.172C160.037 21.8857 160.599 18.5416 160.878 14.1688H167.875V23.7241ZM130.665 28.6827H149.94V23.7241H135.98V21.3001H149.324V16.5628H135.98V14.1386H149.8V9.18008H130.665V28.6827ZM107.722 28.6827H120.506C125.599 28.6827 128.117 26.3416 128.117 22.4692V22.2178C128.117 18.4008 125.88 16.3666 120.226 16.3666H113.035V14.1386H126.855V9.18008H107.717V28.6827H107.722ZM120.676 23.7241H113.037V20.9933H120.676C121.767 20.9933 122.355 21.2722 122.355 22.3587C122.355 23.3318 121.769 23.7241 120.676 23.7241ZM87.8322 18.959C87.8322 15.5871 90.4908 14.5561 93.5109 14.5561C96.5333 14.5561 99.1898 15.5871 99.1898 18.959C99.1898 22.2455 96.7001 23.3043 93.5109 23.3043C90.3217 23.3041 87.8322 22.2455 87.8322 18.959ZM93.5109 28.9619C100.058 28.9619 105.346 25.5624 105.346 19.0168V18.8484C105.346 12.3559 100.086 8.90319 93.5109 8.90319C86.9358 8.90319 81.676 12.3583 81.676 18.8484V19.0168C81.676 25.5624 86.9635 28.9619 93.5109 28.9619Z" fill="#FEFEFE"/>
<path d="M61.8956 39.4173H63.8928V47.0662H61.8956V44.6046C61.3557 44.8271 60.7645 44.9384 60.1223 44.9384C59.2098 44.9384 58.4672 44.7227 57.8948 44.2917C57.3222 43.8605 57.0359 43.1536 57.0359 42.1709V39.4173H59.0329V41.6564C59.0329 42.1941 59.1376 42.5765 59.347 42.8037C59.5566 43.0308 59.9454 43.1444 60.5131 43.1444C61.0904 43.1444 61.5513 43.0517 61.8956 42.8663V39.4173ZM69.3253 39.2504C70.5821 39.2504 71.5759 39.6815 72.3067 40.5437C73.0376 41.406 73.3519 42.4768 73.2495 43.7561H67.356C67.4213 44.3496 67.6355 44.8039 67.9984 45.1192C68.3616 45.4344 68.8131 45.592 69.3531 45.592C69.7441 45.592 70.0932 45.5062 70.4004 45.3347C70.7078 45.1631 70.9266 44.929 71.0568 44.6323H73.1238C72.8538 45.4946 72.379 46.1436 71.6994 46.5793C71.0195 47.0151 70.2423 47.233 69.367 47.233C68.1754 47.233 67.2026 46.8575 66.4486 46.1065C65.6942 45.3556 65.3171 44.4052 65.3171 43.2556C65.3171 42.106 65.6942 41.151 66.4486 40.3907C67.2026 39.6305 68.1614 39.2504 69.3253 39.2504ZM69.3113 40.8913C68.8364 40.8913 68.4407 41.0189 68.1242 41.2739C67.8077 41.5289 67.584 41.8694 67.4539 42.2961H71.1268C71.0151 41.8694 70.8009 41.5289 70.4842 41.2739C70.1679 41.0189 69.7768 40.8913 69.3113 40.8913ZM78.4159 47.233C77.271 47.233 76.3194 46.8529 75.5606 46.0926C74.8019 45.3324 74.4225 44.382 74.4225 43.2416C74.4225 42.1014 74.8019 41.151 75.5606 40.3907C76.3194 39.6305 77.2763 39.2504 78.4303 39.2504C79.3982 39.2504 80.2443 39.5263 80.9652 40.0779C81.6863 40.6295 82.1174 41.3781 82.257 42.3237H80.205C80.0922 41.9251 79.8758 41.6192 79.5556 41.406C79.2335 41.1928 78.8579 41.0862 78.4303 41.0862C77.8256 41.0862 77.3408 41.2854 76.9775 41.6841C76.6145 42.0827 76.4373 42.6021 76.4481 43.2416C76.4373 43.8814 76.6182 44.4007 76.9848 44.7992C77.3533 45.198 77.8292 45.3972 78.4159 45.3972C78.8453 45.3972 79.2211 45.2906 79.5484 45.0774C79.874 44.8642 80.0922 44.5536 80.205 44.1457H82.257C82.1084 45.1192 81.6719 45.8771 80.951 46.4194C80.23 46.9618 79.3857 47.233 78.4159 47.233ZM89.6866 39.4173V41.2947H87.3126V47.0662H85.3162V41.2947H82.9548V39.4173H89.6866ZM96.2218 39.4173H98.2185V47.0662H96.2218V44.1179H92.7725V47.0662H90.7762V39.4173H92.7725V42.2404H96.2218V39.4173ZM103.762 41.6564C104.564 41.6564 105.23 41.865 105.761 42.2821C106.29 42.6993 106.557 43.3715 106.557 44.2986C106.557 44.7808 106.474 45.2049 106.312 45.5711C106.149 45.9373 105.931 46.2271 105.655 46.4403C105.382 46.6535 105.079 46.8112 104.748 46.9131C104.417 47.0151 104.067 47.0662 103.693 47.0662H99.8106V39.4173H101.809V41.6564H103.762ZM107.589 39.4173H109.588V47.0662H107.589V39.4173ZM103.623 45.1748C104.229 45.1748 104.532 44.8827 104.532 44.2986C104.532 43.7053 104.233 43.4086 103.637 43.4086H101.809V45.1748H103.623ZM118.538 47.0662H116.163L114.585 44.6602L113.093 47.0662H110.69L113.4 43.1165L110.829 39.4173H113.203L114.656 41.6564L116.01 39.4173H118.412L115.844 43.1722L118.538 47.0662ZM130.925 45.1887H132.322V48.9992H130.326V47.0662H123.831V39.4173H125.828V45.1887H128.929V39.4173H130.925V45.1887ZM137.154 39.2504C138.41 39.2504 139.405 39.6815 140.136 40.5437C140.866 41.406 141.181 42.4768 141.077 43.7561H135.184C135.251 44.3496 135.463 44.8039 135.827 45.1192C136.19 45.4344 136.642 45.592 137.182 45.592C137.572 45.592 137.922 45.5062 138.23 45.3347C138.537 45.1631 138.755 44.929 138.886 44.6323H140.952C140.682 45.4946 140.207 46.1436 139.528 46.5793C138.848 47.0151 138.072 47.233 137.195 47.233C136.003 47.233 135.03 46.8575 134.277 46.1065C133.523 45.3556 133.147 44.4052 133.147 43.2556C133.147 42.106 133.523 41.151 134.277 40.3907C135.03 39.6305 135.99 39.2504 137.154 39.2504ZM137.139 40.8913C136.666 40.8913 136.271 41.0189 135.954 41.2739C135.637 41.5289 135.413 41.8694 135.283 42.2961H138.955C138.843 41.8694 138.63 41.5289 138.314 41.2739C137.997 41.0189 137.605 40.8913 137.139 40.8913ZM147.879 39.4173H149.876V47.0662H147.879V44.1179H144.43V47.0662H142.433V39.4173H144.43V42.2404H147.879V39.4173Z" fill="#FEFEFE"/>
</g>
<defs>
<clipPath id="clip0_2902_53939">
<rect width="201" height="49" fill="white"/>
</clipPath>
</defs>
</svg>
